<?xml version="1.0" encoding="UTF-8"?>
<svg width="201px" height="201px" viewBox="0 0 201 201" version="1.1" xmlns="http://www.w3.org/2000/svg" xmlns:xlink="http://www.w3.org/1999/xlink">
    <!-- Generator: Sketch 59.1 (86144) - https://sketch.com -->
    <title>BDSToken</title>
    <desc>Created with Sketch.</desc>
    <defs>
        <linearGradient x1="8.20687235%" y1="2.86690658%" x2="91.69849%" y2="94.4322358%" id="linearGradient-1">
            <stop stop-color="#2E2E30" offset="0%"></stop>
            <stop stop-color="#1A1A1C" offset="100%"></stop>
        </linearGradient>
    </defs>
    <g id="页面-1" stroke="none" stroke-width="1" fill="none" fill-rule="evenodd">
        <g id="画板备份" transform="translate(-1056.000000, -440.000000)">
            <g id="BDSToken" transform="translate(1056.000000, 440.000000)">
                <circle id="椭圆形" fill="url(#linearGradient-1)" cx="100.54" cy="100.78" r="100"></circle>
                <path d="M100.54,190.62 C139.36,190.62 172.38,165.82 184.66,131.21 L16.42,131.21 C28.7,165.82 61.71,190.62 100.54,190.62 Z" id="路径" fill="#FFFFFF" fill-rule="nonzero"></path>
                <g id="编组" transform="translate(62.000000, 146.000000)" fill="#212122" fill-rule="nonzero">
                    <path d="M11.91,6.7 C11.83,5.9 11.49,5.28 10.89,4.84 C10.29,4.4 9.47,4.18 8.44,4.18 C7.74,4.18 7.15,4.28 6.67,4.47 C6.19,4.67 5.82,4.93 5.57,5.28 C5.32,5.62 5.19,6.01 5.19,6.45 C5.18,6.81 5.25,7.13 5.42,7.4 C5.59,7.67 5.82,7.9 6.12,8.1 C6.42,8.3 6.76,8.46 7.15,8.6 C7.54,8.74 7.96,8.86 8.4,8.96 L10.22,9.4 C11.1,9.6 11.92,9.86 12.66,10.19 C13.4,10.52 14.04,10.93 14.58,11.41 C15.12,11.89 15.54,12.46 15.84,13.11 C16.14,13.76 16.29,14.51 16.3,15.36 C16.29,16.6 15.98,17.68 15.35,18.58 C14.72,19.48 13.83,20.19 12.66,20.69 C11.49,21.19 10.08,21.44 8.43,21.44 C6.79,21.44 5.37,21.19 4.16,20.69 C2.95,20.19 2,19.44 1.33,18.46 C0.65,17.47 0.3,16.25 0.27,14.79 L4.42,14.79 C4.47,15.47 4.66,16.04 5.01,16.49 C5.36,16.94 5.82,17.28 6.41,17.51 C7,17.74 7.66,17.85 8.4,17.85 C9.13,17.85 9.76,17.74 10.3,17.53 C10.84,17.32 11.26,17.03 11.55,16.65 C11.85,16.27 12,15.84 12,15.35 C12,14.89 11.87,14.51 11.6,14.2 C11.33,13.89 10.94,13.63 10.43,13.41 C9.92,13.19 9.29,12.99 8.55,12.82 L6.34,12.27 C4.63,11.85 3.28,11.2 2.29,10.32 C1.3,9.44 0.81,8.24 0.81,6.75 C0.8,5.52 1.13,4.45 1.8,3.53 C2.46,2.61 3.38,1.9 4.54,1.38 C5.7,0.86 7.02,0.61 8.5,0.61 C10,0.61 11.32,0.87 12.45,1.38 C13.58,1.89 14.45,2.61 15.08,3.53 C15.71,4.45 16.03,5.51 16.05,6.72 L11.91,6.72 L11.91,6.7 Z" id="路径"></path>
                    <polygon id="路径" points="22.34 21.15 16.54 0.87 21.22 0.87 24.58 14.96 24.75 14.96 28.45 0.87 32.46 0.87 36.15 14.99 36.33 14.99 39.69 0.87 44.37 0.87 38.57 21.15 34.39 21.15 30.53 7.89 30.37 7.89 26.52 21.15"></polygon>
                    <path d="M46.7,21.15 L42.11,21.15 L49.11,0.87 L54.64,0.87 L61.63,21.15 L57.04,21.15 L51.96,5.51 L51.8,5.51 L46.7,21.15 Z M46.41,13.18 L57.26,13.18 L57.26,16.53 L46.41,16.53 L46.41,13.18 Z" id="形状"></path>
                    <path d="M62.66,21.15 L62.66,0.87 L70.66,0.87 C72.2,0.87 73.51,1.16 74.59,1.75 C75.67,2.33 76.5,3.14 77.07,4.18 C77.64,5.21 77.93,6.4 77.93,7.75 C77.93,9.1 77.64,10.29 77.06,11.31 C76.48,12.34 75.64,13.14 74.54,13.72 C73.44,14.3 72.11,14.58 70.55,14.58 L65.45,14.58 L65.45,11.14 L69.86,11.14 C70.68,11.14 71.37,11 71.9,10.71 C72.43,10.42 72.84,10.02 73.11,9.51 C73.38,9 73.51,8.41 73.51,7.74 C73.51,7.07 73.38,6.48 73.11,5.97 C72.84,5.47 72.44,5.07 71.9,4.79 C71.36,4.51 70.67,4.37 69.84,4.37 L66.95,4.37 L66.95,21.14 L62.66,21.14 L62.66,21.15 Z" id="路径"></path>
                </g>
                <path d="M101.198498,55.0217295 C93.8846337,55.0217295 87.6612668,59.6953702 85.3551304,66.2181024 C84.7360977,67.9684501 84.3998753,69.8529661 84.3998753,71.8153476 C84.3998753,73.7787558 84.7360977,75.6624161 85.3559864,77.4137907 C87.6619516,83.9360094 93.8846337,88.6091367 101.198498,88.6091367 L123.600085,88.6091367 L136.624765,88.6091367 C138.278487,85.1293195 139.434722,81.3667906 140,77.4137907 L128.6376,77.4137907 L117.041865,77.4137907 L101.198498,77.4127639 C98.1059024,77.4127639 95.5991282,74.9070353 95.5991282,71.8153476 C95.5991282,68.7241732 98.1059024,66.2181024 101.198498,66.2181024 L117.04255,66.2181024 C114.736585,59.6953702 108.513389,55.0217295 101.198498,55.0217295 L101.198498,55.0217295 Z M101.198498,99.8046539 C92.0388344,99.8046539 83.9056421,95.4072218 78.7975954,88.6091367 C76.3515946,85.3547015 74.6001225,81.5500739 73.7605936,77.4137907 C73.3923582,75.6047443 73.1995953,73.7328922 73.1995953,71.8153476 C73.1995953,69.8986586 73.3923582,68.0261219 73.7593953,66.2181024 C74.5994377,62.0818191 76.3515946,58.2770204 78.7975954,55.0217295 C82.7969984,49.6991527 88.6511028,45.8486614 95.4000312,44.4277446 L95.4000312,33.0569873 C87.0348728,34.2970166 79.5314984,38.1788252 73.7655582,43.8265546 C70.4846508,47.040089 67.7671385,50.8260631 65.7729151,55.0217295 C64.1185092,58.5022313 62.9631299,62.2651025 62.3969958,66.2181024 C62.1357558,68.0463156 62,69.9147451 62,71.8153476 C62,73.7161212 62.1357558,75.5855774 62.3969958,77.4137907 C62.9631299,81.3667906 64.1185092,85.1293195 65.7729151,88.6091367 C67.7671385,92.8051454 70.4853356,96.5912906 73.7655582,99.8046539 C80.8361576,106.730233 90.5186435,111 101.198498,111 C111.878866,111 121.561694,106.730233 128.631609,99.8046539 L101.198498,99.8046539 Z M106.599969,44.347141 C113.51718,45.6985778 119.522618,49.5949327 123.600085,55.0217295 C126.045401,58.2770204 127.798243,62.0818191 128.6376,66.2181024 L140,66.2181024 C139.434722,62.2651025 138.279171,58.5022313 136.624765,55.0217295 C134.631056,50.8260631 131.913201,47.040089 128.632122,43.8265546 C122.775279,38.0893226 115.125535,34.1744854 106.599969,33 L106.599969,44.347141 Z" id="Fill-1" fill="#FFFFFF"></path>
            </g>
        </g>
    </g>
</svg>