<?xml version="1.0" encoding="UTF-8"?>
<svg width="473px" height="81px" viewBox="0 0 473 81" version="1.1" xmlns="http://www.w3.org/2000/svg" xmlns:xlink="http://www.w3.org/1999/xlink">
    <!-- Generator: Sketch 59.1 (86144) - https://sketch.com -->
    <title>编组</title>
    <desc>Created with Sketch.</desc>
    <g id="页面-1" stroke="none" stroke-width="1" fill="none" fill-rule="evenodd">
        <g id="画板备份" transform="translate(-535.000000, -1315.000000)" fill="#FFFFFF">
            <g id="编组" transform="translate(535.000000, 1315.000000)">
                <path d="M145,78 L145,64.5898876 L109.115139,64.5898876 L109.115139,45.880618 L139.671642,45.880618 L139.671642,32.4705056 L109.115139,32.4705056 L109.115139,14.4101124 L145,14.4101124 L145,1 L94,1 L94,78 L145,78 Z M173,13 L173,1 L159,1 L159,13 L173,13 Z M173,80 L173,23 L159,23 L159,80 L173,80 Z M236,78 L236,41.9829222 C236,38.8823374 235.620096,36.0161422 234.860277,33.3842505 C234.100458,30.7523588 232.562752,28.282744 230.247113,25.9753321 C228.655111,24.3889864 226.737502,23.1631922 224.494226,22.2979127 C222.250951,21.4326332 219.718259,21 216.896074,21 C214.29098,21 211.758288,21.4867124 209.297921,22.4601518 C206.837555,23.4335912 204.666676,24.8937284 202.785219,26.8406072 L202.785219,21.6489564 L189,21.6489564 L189,78 L203.110855,78 L203.110855,43.9297913 C203.110855,41.9829125 203.400305,40.3605378 203.979215,39.0626186 C204.558125,37.7646994 205.299842,36.7191691 206.204388,35.9259962 C207.108934,35.1328234 208.122011,34.555979 209.243649,34.1954459 C210.365287,33.8349128 211.468817,33.654649 212.554273,33.654649 C213.639728,33.654649 214.743258,33.8349128 215.864896,34.1954459 C216.986534,34.555979 217.999611,35.1328234 218.904157,35.9259962 C219.808704,36.7191691 220.53233,37.7646994 221.075058,39.0626186 C221.617786,40.3605378 221.889145,41.9829125 221.889145,43.9297913 L221.889145,78 L236,78 Z M295,79.4454887 L295,41.406015 C295,34.603976 292.964444,29.5025233 288.893271,26.1015038 C284.822099,22.7004842 278.78813,21 270.791183,21 C266.065715,21 262.158175,21.5545057 259.068445,22.6635338 C255.978716,23.7725619 253.052605,25.8796837 250.290023,28.9849624 L259.341067,37.9680451 C260.068062,37.0808226 260.795047,36.3414817 261.522042,35.75 C262.249037,35.1585183 263.030545,34.6779467 263.866589,34.3082707 C264.702634,33.9385946 265.629539,33.6613418 266.647332,33.4765038 C267.665125,33.2916657 268.864649,33.1992481 270.24594,33.1992481 C274.026314,33.1992481 276.734331,33.9201056 278.37007,35.3618421 C280.005809,36.8035786 280.823666,39.1140192 280.823666,42.2932331 L280.823666,45.1766917 L267.410673,45.1766917 C264.139195,45.1766917 261.285782,45.6202963 258.850348,46.5075188 C256.414914,47.3947413 254.397533,48.5961704 252.798144,50.1118421 C251.198755,51.6275138 249.999231,53.4019322 249.199536,55.4351504 C248.399841,57.4683686 248,59.6309409 248,61.9229323 C248,64.5106646 248.399841,66.9135227 249.199536,69.1315789 C249.999231,71.3496352 251.162405,73.2719217 252.689095,74.8984962 C256.033273,78.2995158 260.867718,80 267.192575,80 C270.464053,80 273.13572,79.5563954 275.207657,78.6691729 C277.279593,77.7819505 279.260625,76.3772026 281.150812,74.4548872 L281.150812,79.4454887 L295,79.4454887 Z M282,58.8235294 C282,62.0504363 281.28031,64.2689015 279.840909,65.4789916 C278.553024,66.6218545 277.189401,67.3277297 275.75,67.5966387 C274.310599,67.8655476 272.568192,68 270.522727,68 C267.643925,68 265.503795,67.4453837 264.102273,66.3361345 C262.700751,65.2268852 262,63.764715 262,61.9495798 C262,60.0672175 262.71969,58.6050472 264.159091,57.5630252 C265.598492,56.5210032 267.643926,56 270.295455,56 L282,56 L282,58.8235294 Z M358,78 L358,41.9829222 C358,38.8823374 357.620096,36.0161422 356.860277,33.3842505 C356.100458,30.7523588 354.562752,28.282744 352.247113,25.9753321 C350.655111,24.3889864 348.737502,23.1631922 346.494226,22.2979127 C344.250951,21.4326332 341.718259,21 338.896074,21 C336.29098,21 333.758288,21.4867124 331.297921,22.4601518 C328.837555,23.4335912 326.666676,24.8937284 324.785219,26.8406072 L324.785219,21.6489564 L311,21.6489564 L311,78 L325.110855,78 L325.110855,43.9297913 C325.110855,41.9829125 325.400305,40.3605378 325.979215,39.0626186 C326.558125,37.7646994 327.299842,36.7191691 328.204388,35.9259962 C329.108934,35.1328234 330.122011,34.555979 331.243649,34.1954459 C332.365287,33.8349128 333.468817,33.654649 334.554273,33.654649 C335.639728,33.654649 336.743258,33.8349128 337.864896,34.1954459 C338.986534,34.555979 339.999611,35.1328234 340.904157,35.9259962 C341.808704,36.7191691 342.53233,37.7646994 343.075058,39.0626186 C343.617786,40.3605378 343.889145,41.9829125 343.889145,43.9297913 L343.889145,78 L358,78 Z M414,72.1407129 L404.222222,62.5103189 C402.740733,64.1338418 401.296303,65.2961191 399.888889,65.9971857 C398.481474,66.6982524 396.814824,67.0487805 394.888889,67.0487805 C391.481464,67.0487805 388.740751,65.7942589 386.666667,63.2851782 C384.518508,60.6285045 383.444444,56.3483722 383.444444,50.4446529 C383.444444,47.3452003 383.703701,44.7992595 384.222222,42.8067542 C384.740743,40.8142489 385.55555,39.1169551 386.666667,37.7148218 C388.740751,35.2057411 391.481464,33.9512195 394.888889,33.9512195 C396.814824,33.9512195 398.481474,34.3017476 399.888889,35.0028143 C401.296303,35.7038809 402.740733,36.8661582 404.222222,38.4896811 L414,28.7485929 C411.407394,26.0919192 408.574089,24.1363415 405.5,22.8818011 C402.425911,21.6272608 398.888909,21 394.888889,21 C391.999986,21 389.018534,21.4427723 385.944444,22.3283302 C382.870355,23.2138881 380.092605,24.7635912 377.611111,26.9774859 C375.129617,29.1913807 373.074082,32.1985426 371.444444,35.9990619 C369.814807,39.7995812 369,44.6147301 369,50.4446529 C369,56.2745757 369.814807,61.0897246 371.444444,64.8902439 C373.074082,68.6907632 375.129617,71.716374 377.611111,73.967167 C380.092605,76.21796 382.870355,77.7861119 385.944444,78.6716698 C389.018534,79.5572277 391.999986,80 394.888889,80 C398.888909,80 402.425911,79.3542904 405.5,78.0628518 C408.574089,76.7714132 411.407394,74.7973866 414,72.1407129 Z M473,54.9831144 L473,48.5628518 C473,44.5778412 472.438332,40.9065209 471.314978,37.5487805 C470.191624,34.1910401 468.544064,31.2945713 466.372247,28.8592871 C464.20043,26.4240028 461.523144,24.5053228 458.340308,23.1031895 C455.157473,21.7010562 451.544073,21 447.5,21 C443.680598,21 440.216976,21.6457096 437.109031,22.9371482 C434.001086,24.2285868 431.3238,26.128818 429.077093,28.6378987 C426.830385,31.1469794 425.089213,34.2279367 423.853524,37.880863 C422.617835,41.5337894 422,45.7216774 422,50.4446529 C422,56.2745757 422.767613,61.0897246 424.302863,64.8902439 C425.838113,68.6907632 427.86012,71.716374 430.368943,73.967167 C432.877766,76.21796 435.760997,77.7861119 439.018722,78.6716698 C442.276448,79.5572277 445.627736,80 449.072687,80 C451.693846,80 454.052853,79.7970627 456.14978,79.391182 C458.246707,78.9853013 460.175101,78.3949382 461.935022,77.620075 C463.694943,76.8452119 465.323781,75.9043207 466.821586,74.7973734 C468.319391,73.690426 469.817173,72.3990068 471.314978,70.9230769 L462.440529,62.3996248 C460.568273,64.2445371 458.696045,65.6097517 456.823789,66.4953096 C454.951532,67.3808675 452.405302,67.8236398 449.185022,67.8236398 C445.066059,67.8236398 441.901993,66.6244648 439.692731,64.2260788 C437.483469,61.8276928 436.378855,58.7467355 436.378855,54.9831144 L473,54.9831144 Z M459,45 L437,45 C437.074074,43.7636302 437.203703,42.6909136 437.388889,41.7818182 C437.574075,40.8727227 437.888887,39.909096 438.333333,38.8909091 C439.148152,37.2181735 440.351844,35.8181875 441.944444,34.6909091 C443.537045,33.5636307 445.555543,33 448,33 C450.444457,33 452.462955,33.5636307 454.055556,34.6909091 C455.648156,35.8181875 456.851848,37.2181735 457.666667,38.8909091 C458.111113,39.909096 458.425925,40.8727227 458.611111,41.7818182 C458.796297,42.6909136 458.925926,43.7636302 459,45 Z" id="Einance" fill-rule="nonzero"></path>
                <path d="M40.7061324,22.8687191 C33.1109658,22.8687191 26.6482386,27.7221152 24.2534046,34.4957217 C23.610563,36.3133905 23.261409,38.2703879 23.261409,40.3082455 C23.261409,42.3471695 23.610563,44.3032783 24.2542935,46.1220134 C26.6489497,52.8950867 33.1109658,57.7479497 40.7061324,57.7479497 L63.9693192,57.7479497 L77.4949487,57.7479497 C79.2122745,54.1342933 80.4129804,50.2270517 81,46.1220134 L69.2005851,46.1220134 L57.1588602,46.1220134 L40.7061324,46.1209471 C37.494591,46.1209471 34.8914024,43.5188444 34.8914024,40.3082455 C34.8914024,37.0981798 37.494591,34.4957217 40.7061324,34.4957217 L57.1595713,34.4957217 C54.7649152,27.7221152 48.3023658,22.8687191 40.7061324,22.8687191 L40.7061324,22.8687191 Z M40.7061324,69.3740637 C31.1941742,69.3740637 22.7481668,64.8074996 17.4436568,57.7479497 C14.903579,54.3683439 13.0847426,50.4173845 12.2129242,46.1220134 C11.8305258,44.2433883 11.6303489,42.2995419 11.6303489,40.3082455 C11.6303489,38.3178378 11.8305258,36.3732804 12.2116797,34.4957217 C13.0840315,30.2003506 14.903579,26.2492134 17.4436568,22.8687191 C21.596883,17.3414278 27.6761452,13.3428407 34.6846477,11.8672732 L34.6846477,0.0591790884 C25.9977525,1.34690184 18.2057868,5.37801073 12.2180797,11.2429605 C8.81098355,14.5800924 5.98895149,18.5116809 3.91802725,22.8687191 C2.19999034,26.4830864 1.00017339,30.3906833 0.412264857,34.4957217 C0.140977159,36.3942508 0,38.334543 0,40.3082455 C0,42.2821258 0.140977159,44.2234843 0.412264857,46.1220134 C1.00017339,50.2270517 2.19999034,54.1342933 3.91802725,57.7479497 C5.98895149,62.1053433 8.81169465,66.0371095 12.2180797,69.3740637 C19.5606252,76.5660112 29.6155144,81 40.7061324,81 C51.7972837,81 61.8525285,76.5660112 69.1943629,69.3740637 L40.7061324,69.3740637 Z M46.3153523,11.7835695 C53.4986096,13.1869847 59.7350267,17.2331994 63.9693192,22.8687191 C66.5086858,26.2492134 68.3289445,30.2003506 69.2005851,34.4957217 L81,34.4957217 C80.4129804,30.3906833 79.2129856,26.4830864 77.4949487,22.8687191 C75.4245578,18.5116809 72.6021702,14.5800924 69.1948963,11.2429605 C63.1127896,5.2850658 55.1688245,1.21965791 46.3153523,0 L46.3153523,11.7835695 Z" id="Fill-1"></path>
            </g>
        </g>
    </g>
</svg>