<?xml version="1.0" encoding="UTF-8"?>
<svg width="153px" height="153px" viewBox="0 0 153 153" version="1.1" xmlns="http://www.w3.org/2000/svg" xmlns:xlink="http://www.w3.org/1999/xlink">
    <!-- Generator: Sketch 59.1 (86144) - https://sketch.com -->
    <title>Fill 1</title>
    <desc>Created with Sketch.</desc>
    <g id="页面-1" stroke="none" stroke-width="1" fill="none" fill-rule="evenodd">
        <g id="画板备份" transform="translate(-1156.000000, -1279.000000)" fill="#FFFFFF">
            <path d="M1232.88936,1322.19647 C1218.54294,1322.19647 1206.33556,1331.364 1201.81199,1344.15859 C1200.59773,1347.59196 1199.93822,1351.28851 1199.93822,1355.1378 C1199.93822,1358.9891 1200.59773,1362.68397 1201.81367,1366.11936 C1206.3369,1378.91294 1218.54294,1388.07946 1232.88936,1388.07946 L1276.83094,1388.07946 L1302.37935,1388.07946 C1305.62319,1381.25367 1307.89119,1373.87332 1309,1366.11936 L1286.71222,1366.11936 L1263.96674,1366.11936 L1232.88936,1366.11734 C1226.82312,1366.11734 1221.90598,1361.20226 1221.90598,1355.1378 C1221.90598,1349.07434 1226.82312,1344.15859 1232.88936,1344.15859 L1263.96808,1344.15859 C1259.44484,1331.364 1247.2378,1322.19647 1232.88936,1322.19647 L1232.88936,1322.19647 Z M1232.88936,1410.0399 C1214.92233,1410.0399 1198.96876,1401.41417 1188.94913,1388.07946 C1184.1512,1381.69576 1180.71562,1374.23284 1179.06886,1366.11936 C1178.34655,1362.57084 1177.96844,1358.89913 1177.96844,1355.1378 C1177.96844,1351.37814 1178.34655,1347.70509 1179.06651,1344.15859 C1180.71428,1336.04511 1184.1512,1328.58185 1188.94913,1322.19647 C1196.79411,1311.75603 1208.27716,1304.20314 1221.51545,1301.41596 L1221.51545,1279.11178 C1205.10687,1281.54415 1190.38871,1289.15846 1179.07859,1300.2367 C1172.64297,1306.54017 1167.31246,1313.96651 1163.40072,1322.19647 C1160.15554,1329.02361 1157.88922,1336.40462 1156.77872,1344.15859 C1156.26629,1347.7447 1156,1351.40969 1156,1355.1378 C1156,1358.86624 1156.26629,1362.53325 1156.77872,1366.11936 C1157.88922,1373.87332 1160.15554,1381.25367 1163.40072,1388.07946 C1167.31246,1396.31009 1172.64431,1403.73676 1179.07859,1410.0399 C1192.94785,1423.62469 1211.94042,1432 1232.88936,1432 C1253.83931,1432 1272.83255,1423.62469 1286.70046,1410.0399 L1232.88936,1410.0399 Z M1243.48455,1301.25785 C1257.05293,1303.90875 1268.83283,1311.5516 1276.83094,1322.19647 C1281.62752,1328.58185 1285.06578,1336.04511 1286.71222,1344.15859 L1309,1344.15859 C1307.89119,1336.40462 1305.62453,1329.02361 1302.37935,1322.19647 C1298.46861,1313.96651 1293.13743,1306.54017 1286.70147,1300.2367 C1275.21305,1288.9829 1260.20778,1281.3038 1243.48455,1279 L1243.48455,1301.25785 Z" id="Fill-1"></path>
        </g>
    </g>
</svg>